<svg xmlns="http://www.w3.org/2000/svg">
  <symbol id="stat-hp" viewBox="0 0 24 24"><path d="M12 21s-7-4.4-7-10.1A4.1 4.1 0 0 1 12 8a4.1 4.1 0 0 1 7 2.9C19 16.6 12 21 12 21Z" fill="none" stroke="currentColor" stroke-width="1.8" stroke-linejoin="round"/></symbol>
  <symbol id="stat-attack" viewBox="0 0 24 24"><path d="m5 19 10-10m-6-3 3-3 3 3-7 7m7-4 4 4-3 3-4-4M4 20l4-1-3-3-1 4Z" fill="none" stroke="currentColor" stroke-width="1.7" stroke-linecap="round" stroke-linejoin="round"/></symbol>
  <symbol id="stat-defense" viewBox="0 0 24 24"><path d="M12 3 19 6v5c0 4.6-2.7 8-7 10-4.3-2-7-5.4-7-10V6l7-3Z" fill="none" stroke="currentColor" stroke-width="1.8" stroke-linejoin="round"/></symbol>
  <symbol id="stat-elemental-mastery" viewBox="0 0 24 24"><circle cx="12" cy="12" r="3" fill="none" stroke="currentColor" stroke-width="1.7"/><path d="M12 3v4m0 10v4M3 12h4m10 0h4M5.6 5.6l2.8 2.8m7.2 7.2 2.8 2.8m0-12.8-2.8 2.8m-7.2 7.2-2.8 2.8" fill="none" stroke="currentColor" stroke-width="1.7" stroke-linecap="round"/></symbol>
  <symbol id="stat-crit-rate" viewBox="0 0 24 24"><circle cx="12" cy="12" r="8" fill="none" stroke="currentColor" stroke-width="1.7"/><circle cx="12" cy="12" r="3" fill="none" stroke="currentColor" stroke-width="1.7"/><path d="m14 10 5-5" fill="none" stroke="currentColor" stroke-width="1.7" stroke-linecap="round"/></symbol>
  <symbol id="stat-crit-damage" viewBox="0 0 24 24"><path d="m12 2 2.1 6.1L20 6l-2.1 5.9L22 14l-6.1.1L16 20l-4-4-4 4 .1-5.9L2 14l4.1-2.1L4 6l5.9 2.1L12 2Z" fill="none" stroke="currentColor" stroke-width="1.5" stroke-linejoin="round"/></symbol>
  <symbol id="stat-energy-recharge" viewBox="0 0 24 24"><path d="M18.4 7A8 8 0 1 0 20 14" fill="none" stroke="currentColor" stroke-width="1.8" stroke-linecap="round"/><path d="m18 3 .4 4-4 .4M13 7l-4 6h4l-2 4" fill="none" stroke="currentColor" stroke-width="1.8" stroke-linecap="round" stroke-linejoin="round"/></symbol>
  <symbol id="stat-elemental-damage" viewBox="0 0 24 24"><path d="M13 2c1 4-2 5-2 8 0 1.5 1 2.5 2 3.5 1-2 3-3 4-5 2 2 3 4.3 3 6.5a8 8 0 1 1-16 0c0-3.5 2-6.5 5-9-.2 3 1 4 2 4.5C10 7 12 5 13 2Z" fill="none" stroke="currentColor" stroke-width="1.7" stroke-linejoin="round"/></symbol>
  <symbol id="weapon-sword" viewBox="0 0 24 24"><path d="m5 19 11-11 3-4 1 1-4 3L5 19Zm0 0-2 2m3-6 3 3" fill="none" stroke="currentColor" stroke-width="1.8" stroke-linecap="round" stroke-linejoin="round"/></symbol>
  <symbol id="weapon-claymore" viewBox="0 0 24 24"><path d="m5 19 9-9 3-6 3 3-6 3-9 9Zm0 0-2 2m4-6 3 3" fill="none" stroke="currentColor" stroke-width="2" stroke-linecap="round" stroke-linejoin="round"/></symbol>
  <symbol id="weapon-polearm" viewBox="0 0 24 24"><path d="m4 20 14-14m-2-2 4-1-1 4-3-3ZM3 21l3-1-2-2-1 3Z" fill="none" stroke="currentColor" stroke-width="1.7" stroke-linecap="round" stroke-linejoin="round"/></symbol>
  <symbol id="weapon-bow" viewBox="0 0 24 24"><path d="M7 3c7 3 7 15 0 18m10-18c-7 3-7 15 0 18M7 3l10 18M17 3 7 21" fill="none" stroke="currentColor" stroke-width="1.6" stroke-linecap="round"/></symbol>
  <symbol id="weapon-catalyst" viewBox="0 0 24 24"><path d="M6 4h10a2 2 0 0 1 2 2v14H8a2 2 0 0 1-2-2V4Zm2 0v16m3-12h4m-4 3h4" fill="none" stroke="currentColor" stroke-width="1.7" stroke-linecap="round" stroke-linejoin="round"/></symbol>
</svg>
